<?xml version="1.0" encoding="utf-8"?>
<!-- Generator: Adobe Illustrator 15.0.0, SVG Export Plug-In . SVG Version: 6.00 Build 0)  -->
<!DOCTYPE svg PUBLIC "-//W3C//DTD SVG 1.1//EN" "http://www.w3.org/Graphics/SVG/1.1/DTD/svg11.dtd">
<svg version="1.1" id="Layer_1" xmlns="http://www.w3.org/2000/svg" xmlns:xlink="http://www.w3.org/1999/xlink" x="0px" y="0px"
	 width="332px" height="200px" viewBox="0 0 332 200" enable-background="new 0 0 332 200" xml:space="preserve">
<g>
	<g>
		<path fill="#FEFEFE" d="M28.271,146.919c0,7.659,3.03,10.184,10.942,10.184c6.396,0,11.952-1.094,13.635-1.431
			c0.926-0.084,1.262,0.337,1.262,1.263v4.882c0,0.589-0.589,0.926-1.683,1.347c-3.114,0.926-9.764,1.431-15.15,1.431
			c-15.402,0-19.022-6.145-19.022-17.76v-9.09c0-6.985,1.684-11.531,7.912-14.729c1.683-0.842,2.104-0.252,2.104,0.758V146.919z
			 M32.228,128.822c-0.926,0.253-1.094,0-1.094-0.589v-5.555c0-0.59,0.084-0.927,0.926-1.011c3.03-0.589,5.723-0.842,9.342-0.842
			c4.377,0,9.848,0.253,11.363,1.516c0.252,0.168,0.337,0.505,0.337,0.757l-0.673,11.952c-0.084,0.926-0.505,1.095-1.263,1.095
			h-3.956c-0.589,0-0.926-0.337-1.094-1.095l-1.263-6.565c-1.599-0.252-3.535-0.42-5.976-0.42
			C36.015,128.065,33.911,128.401,32.228,128.822z"/>
		<path fill="#FEFEFE" d="M76.835,154.746c0,1.936,0.252,2.272,2.525,2.525l1.515,0.252c0.589,0.084,0.842,0.421,0.842,1.095v4.208
			c0,0.505-0.337,0.926-1.01,0.926H62.779c-0.673,0-0.926-0.337-0.926-0.926v-4.124c0-0.758,0.252-1.095,0.842-1.179l1.515-0.252
			c2.02-0.253,2.525-0.674,2.525-2.778v-44.524c0-2.272-0.337-2.524-2.272-2.777l-1.599-0.253c-1.01-0.168-1.094-0.42-1.094-1.347
			v-3.45c0-0.842,0.252-1.095,1.094-1.179l6.48-1.094c2.525-0.421,4.125-0.674,5.387-0.674c1.6,0,2.104,0.926,2.104,2.021V154.746z
			 M93.752,134.125c0-4.966-1.852-5.892-5.218-5.892c-2.441,0-4.882,0.589-7.912,1.431c-0.589,0.168-1.263,0-1.263-0.842v-3.787
			c0-0.842,0.168-1.263,0.926-1.6c2.02-0.926,5.976-2.609,11.447-2.609c7.323,0,12.12,2.272,12.12,11.363v22.22
			c0,2.441,0.758,3.03,2.272,3.03c0.589,0,0.926,0,1.936-0.168c0.673-0.085,1.094,0,1.094,1.01v4.461
			c0,0.673-0.252,0.926-0.926,1.178c-1.094,0.337-3.283,0.59-6.06,0.59c-7.07,0-8.417-4.04-8.417-8.922V134.125z"/>
		<path fill="#FEFEFE" d="M125.903,152.306c0,3.871,2.778,5.218,7.407,5.218c2.609,0,3.956-0.168,6.229-0.842
			c1.094-0.084,1.094,0,1.094,0.842v4.798c0,0.505,0,0.926-0.926,1.178c-1.347,0.421-4.377,1.095-9.006,1.095
			c-12.541,0-14.898-5.808-14.898-12.373v-1.263c0-6.648,2.357-12.456,14.898-12.456c4.629,0,7.491,0.337,9.006,0.673
			c0.926,0.169,0.926,0.674,0.926,1.179v4.629c0,0.758-0.589,0.842-1.094,0.758c-2.946-0.169-3.788-0.169-6.229-0.169
			c-4.713,0-7.407,1.432-7.407,5.303V152.306z M153.257,154.409c0,2.441,0.757,3.03,2.272,3.03c0.589,0,0.926,0,1.936-0.168
			c0.673-0.085,1.094,0,1.094,1.01v4.461c0,0.673-0.252,0.926-0.926,1.178c-1.094,0.337-3.367,0.59-6.06,0.59
			c-7.07,0-8.417-4.04-8.417-8.922v-20.874c0-5.471-1.431-7.069-7.912-7.069c-2.778,0-6.144,0.084-8.165,0.421l-1.262,6.228
			c-0.168,0.926-0.337,1.179-1.094,1.179h-4.292c-0.842,0-1.01-0.253-1.094-1.179l-0.589-10.184
			c-0.084-1.431-0.252-1.937,0.842-2.272c1.684-0.506,9.511-1.011,15.739-1.011c11.194,0,17.928,1.432,17.928,14.057V154.409z"/>
		<path fill="#FEFEFE" d="M170.847,127.56c0-1.094-0.589-1.599-1.684-1.683l-2.272-0.253c-0.673-0.084-1.01-0.168-1.01-0.926v-1.094
			c0-0.758,0.252-0.926,1.094-1.095l2.693-0.421c1.347-0.252,2.356-0.421,3.703-0.421c1.599,0,2.104,1.011,2.104,2.021v34.761
			c0,1.263,0.252,1.516,2.525,1.852l1.599,0.253c0.589,0.084,0.757,0.337,0.757,1.01v1.347c0,0.505-0.252,0.842-0.842,0.842h-12.709
			c-0.589,0-0.842-0.253-0.842-0.842v-1.347c0-0.589,0.168-0.926,0.757-1.01l1.6-0.253c2.356-0.336,2.525-0.589,2.525-1.683V127.56z
			 M179.011,126.887c-0.505,0.168-1.01,0.084-1.01-0.842v-1.768c0-0.673,0.252-1.01,0.926-1.263
			c2.441-1.01,6.396-2.188,11.278-2.188c7.996,0,11.194,3.114,11.194,10.773v26.177c0,2.44,0.926,2.861,2.777,2.861
			c0.421,0,0.673,0,1.599-0.168c0.758-0.169,1.094,0.084,1.094,0.673v2.021c0,0.505-0.252,0.757-0.926,0.926
			c-0.757,0.168-2.104,0.252-2.946,0.252c-5.05,0-6.229-2.693-6.229-6.564v-26.513c0-4.63-1.852-6.481-7.154-6.481
			C185.576,124.782,182.546,125.961,179.011,126.887z"/>
		<path fill="#FEFEFE" d="M216.548,136.902c0-11.025,3.03-16.076,14.225-16.076c4.208,0,7.659,0.674,9.427,1.347
			c0.673,0.253,0.926,0.506,0.926,1.011v1.768c0,0.757-0.168,1.01-0.758,0.841c-0.673-0.168-5.05-1.262-7.996-1.262
			c-7.912,0-11.026,2.44-11.026,12.288v11.783c0,9.848,3.114,12.289,11.026,12.289c2.946,0,7.322-1.095,7.996-1.263
			c0.589-0.169,0.758,0.084,0.758,0.842v1.768c0,0.589,0,0.673-0.926,1.01c-1.768,0.673-5.219,1.347-9.427,1.347
			c-11.194,0-14.225-5.05-14.225-16.076V136.902z M243.734,167.455v-42.841c0-1.6,0.673-2.862,3.114-2.862
			c0.673,0,1.599,0.085,4.545,0.506c0.758,0.084,1.094,0.252,1.094,1.01v1.094c0,0.674-0.168,0.842-1.01,1.011l-1.431,0.252
			c-1.01,0.168-1.683,0.758-1.683,1.684v40.063c0,8.922-2.862,13.467-17.591,13.467c-3.956,0-9.764-0.337-11.615-0.842
			c-0.757-0.252-0.926-0.337-0.926-1.094v-1.6c0-0.842,0.252-1.01,0.841-0.926c2.525,0.337,7.239,0.926,11.7,0.926
			C239.61,177.303,243.734,175.03,243.734,167.455z"/>
		<path fill="#FEFEFE" d="M266.963,146.919c0,9.511,1.852,13.803,14.057,13.803c4.629,0,7.406-0.673,12.12-1.515
			c1.683-0.337,1.936-0.253,1.936,0.673v1.852c0,0.927-0.168,1.095-1.6,1.432c-3.366,0.757-8.921,1.431-13.551,1.431
			c-14.14,0-17.759-5.976-17.759-17.76v-9.006c0-14.981,6.902-17.002,17.002-17.002c11.193,0,15.907,2.188,15.907,12.71
			c0,10.689-3.703,11.867-17.002,11.867h-7.07c-0.757,0-1.01-0.168-1.01-0.673v-2.272c0-0.674,0.337-0.758,1.095-0.758h6.901
			c10.857,0,12.541-0.842,12.541-8.08c0-7.07-2.525-9.175-11.026-9.175c-9.511,0-12.541,2.441-12.541,13.046V146.919z"/>
	</g>
	<g>
		<path fill="#FEFEFE" d="M98.025,30.812c-6.141,6.143-6.136,16.098,0.002,22.237c6.141,6.139,16.092,6.139,22.233,0
			c5.185-5.185,5.974-13.082,2.402-19.111l8.638-8.636l8.57,8.57c-3.6,6.073-2.811,14.027,2.407,19.243
			c5.223,5.223,13.177,6.013,19.247,2.412l14.131,14.127l14.28-14.282c5.976,3.458,13.745,2.646,18.858-2.466
			c6.102-6.104,6.102-15.996-0.001-22.101c-6.102-6.102-15.997-6.102-22.098,0c-5.17,5.172-5.942,13.066-2.346,19.066l-8.698,8.7
			l-8.588-8.59c3.597-6.069,2.806-14.017-2.413-19.239c-5.218-5.216-13.163-6.007-19.237-2.409l-14.115-14.118l-14.184,14.185
			C111.09,24.84,103.202,25.637,98.025,30.812z M192.24,36.354c3.037-3.038,7.975-3.038,11.01-0.004
			c3.037,3.036,3.037,7.977,0,11.011c-3.035,3.035-7.975,3.035-11.011,0C189.203,44.326,189.207,39.388,192.24,36.354z
			 M187.088,47.136L187.088,47.136L187.088,47.136z M159.106,36.287c3.112,3.111,3.11,8.175,0,11.286
			c-3.111,3.111-8.173,3.115-11.286,0c-3.112-3.11-3.107-8.172,0.005-11.283C150.935,33.179,155.995,33.176,159.106,36.287z
			 M114.719,36.356c3.074,3.072,3.071,8.074-0.002,11.146c-3.074,3.076-8.073,3.076-11.148,0.004c-3.072-3.074-3.072-8.078,0-11.15
			C106.644,33.284,111.646,33.284,114.719,36.356z"/>
		<line fill="#FEFEFE" x1="187.088" y1="47.136" x2="187.088" y2="47.136"/>
	</g>
</g>
</svg>
