<?xml version="1.0" encoding="utf-8"?>
<!-- Generator: Adobe Illustrator 15.0.0, SVG Export Plug-In . SVG Version: 6.00 Build 0)  -->
<!DOCTYPE svg PUBLIC "-//W3C//DTD SVG 1.1//EN" "http://www.w3.org/Graphics/SVG/1.1/DTD/svg11.dtd">
<svg version="1.1" id="Layer_1" xmlns="http://www.w3.org/2000/svg" xmlns:xlink="http://www.w3.org/1999/xlink" x="0px" y="0px"
	 width="314px" height="213px" viewBox="0 0 314 213" enable-background="new 0 0 314 213" xml:space="preserve">
<g>
	<path fill="#FFFFFF" d="M154.563,145.443l-4.675-1.906l-84.84-34.615l-3.869,14.015c2.038,2.977,4.167,7.355,3.684,12.101
		c40.66,12.81,89.701,43.445,89.701,43.445s78.375-48.469,117.046-48.469l-13.825-26.688l-98.546,40.21L154.563,145.443z"/>
	<path fill="#FFFFFF" d="M46.83,88.14l2.933,1.205l0.85,0.342c0.004-0.004,0.008-0.008,0.014-0.016l-3.833-1.563L46.83,88.14z"/>
	<ellipse fill="#FFFFFF" cx="154.563" cy="71.586" rx="13.883" ry="6.576"/>
	<path fill="#FFFFFF" d="M41.478,186.737c2.326-6.815,1.664,6.123,3.789,18.635c2.469-0.282,4.771-0.935,6.288-1.772
		c2.443-1.357-1.966-15.964,5.265-28.033c4.57-7.625,3.186-16.262,1.087-22.07l-6.284-3.219c-0.514-0.262-1.045-0.516-1.68-0.773
		c-1.97-0.826-3.996-1.245-6.022-1.245c-1.742,0-3.488,0.322-5.187,0.95l-7.769,2.885c-8.802,14.981,1.333,35.546,2,47.373
		c0.212,3.771,3.549,5.479,7.461,5.922C40.016,198.299,40.058,190.887,41.478,186.737z"/>
	<path fill="#FFFFFF" d="M46.793,88.108l3.833,1.563c13.275-13.922,65.998-16.991,82.901-17.616
		c-0.008-0.161-0.067-0.306-0.067-0.471c0-7.992,8.875-13.793,21.103-13.793s21.102,5.801,21.102,13.793
		c0,7.996-8.874,13.797-21.102,13.797c-7.761,0-14.146-2.349-17.793-6.099c-12.572,0.975-64.185,5.446-77.185,14.047l94.978,38.749
		l148.5-60.586l-148.5-60.586L6.063,71.491l39.075,15.94l-0.002,0.016l1.694,0.693L46.793,88.108z"/>
	<path fill="#FFFFFF" d="M43.921,140.009c3.364,0,6.492,0.745,9.213,1.886c0.786,0.322,1.531,0.668,2.254,1.039l1.265-8.5
		c0.464-3.086-2.217-7.139-4.209-9.232l7.142-31.873l-8.973-3.642l-7.241,34.305c-2.52,1.43-5.571,4.479-6.032,7.565l-1.477,9.917
		C38.634,140.443,41.347,140.009,43.921,140.009z"/>
</g>
</svg>
