<?xml version="1.0" encoding="iso-8859-1"?>
<!-- Generator: Adobe Illustrator 15.1.0, SVG Export Plug-In . SVG Version: 6.00 Build 0)  -->
<!DOCTYPE svg PUBLIC "-//W3C//DTD SVG 1.1//EN" "http://www.w3.org/Graphics/SVG/1.1/DTD/svg11.dtd">
<svg version="1.1" id="Layer_1" xmlns="http://www.w3.org/2000/svg" xmlns:xlink="http://www.w3.org/1999/xlink" x="0px" y="0px"
	 width="96px" height="96px" viewBox="0 0 96 96" style="enable-background:new 0 0 96 96;" xml:space="preserve">
<g>
	<g>
		<path style="fill:#3C1212;" d="M47.778,59.26l-1.424-0.551L20.521,48.678l-1.177,4.062c0.62,0.861,1.268,2.13,1.121,3.505
			C32.846,59.957,47.778,68.83,47.778,68.83S71.645,54.789,83.42,54.789l-4.21-7.73l-30.008,11.65L47.778,59.26z"/>
		<polygon style="fill:#231F20;" points="14.975,42.66 15.867,43.008 16.125,43.109 16.13,43.104 14.962,42.65 		"/>
		<ellipse style="fill:#FDD900;" cx="47.778" cy="37.863" rx="4.228" ry="1.904"/>
		<path style="fill:#FDD900;" d="M13.345,71.224c0.708-1.975,0.506,0.773,1.154,4.398c0.751-0.081,1.453-0.271,1.914-0.513
			c0.746-0.396-0.598-3.627,1.605-7.124c1.391-2.206,0.969-4.709,0.331-6.392l-1.914-0.934c-0.157-0.074-0.319-0.15-0.514-0.225
			c-0.598-0.237-1.216-0.358-1.832-0.358c-0.532,0-1.062,0.092-1.58,0.274l-2.365,0.836c-2.682,4.339,0.405,9.296,0.608,12.723
			c0.063,1.093,1.081,1.587,2.272,1.717C12.898,73.573,12.912,72.426,13.345,71.224z"/>
		<path style="fill:#3C1212;" d="M14.962,42.65l1.168,0.454c4.043-4.033,20.098-4.921,25.244-5.105
			c-0.002-0.046-0.02-0.088-0.02-0.134c0-2.316,2.701-3.997,6.426-3.997c3.723,0,6.424,1.681,6.424,3.997
			c0,2.314-2.701,3.994-6.424,3.994c-2.364,0-4.309-0.679-5.419-1.767c-3.828,0.283-19.544,1.578-23.502,4.071L47.78,55.386
			L93,37.835L47.78,20.283L2.562,37.835l11.899,4.618l-0.001,0.005l0.517,0.201L14.962,42.65z"/>
		<path style="fill:#FDD900;" d="M14.088,57.687c1.023,0,1.976,0.213,2.804,0.546c0.24,0.093,0.466,0.194,0.688,0.301l0.385-2.461
			c0.141-0.895-0.674-2.069-1.282-2.676l2.175-9.234l-2.733-1.054l-2.204,9.937c-0.766,0.414-1.696,1.298-1.837,2.192l-0.45,2.872
			C12.478,57.812,13.304,57.687,14.088,57.687z"/>
	</g>
	<path style="fill:#240E0E;" d="M47.778,59.26v9.57c0,0-14.878-8.771-27.314-12.585c0,0,0.082-1.898-1.121-3.505l1.177-4.062
		L47.778,59.26z"/>
</g>
</svg>
