<?xml version="1.0" encoding="iso-8859-1"?>
<!-- Generator: Adobe Illustrator 15.1.0, SVG Export Plug-In . SVG Version: 6.00 Build 0)  -->
<!DOCTYPE svg PUBLIC "-//W3C//DTD SVG 1.1//EN" "http://www.w3.org/Graphics/SVG/1.1/DTD/svg11.dtd">
<svg version="1.1" id="Layer_1" xmlns="http://www.w3.org/2000/svg" xmlns:xlink="http://www.w3.org/1999/xlink" x="0px" y="0px"
	 width="800px" height="600px" viewBox="0 0 800 600" style="enable-background:new 0 0 800 600;" xml:space="preserve">
<g>
	<g>
		<path style="fill:#3C1212;" d="M406.691,307.364l-1.549-0.63l-28.113-11.473l-1.281,4.646c0.675,0.985,1.38,2.437,1.22,4.009
			c13.474,4.245,29.723,14.395,29.723,14.395s25.971-16.06,38.785-16.06l-4.581-8.842l-32.655,13.325L406.691,307.364z"/>
		<polygon style="fill:#231F20;" points="370.994,288.378 371.965,288.776 372.246,288.891 372.251,288.885 370.98,288.366 		"/>
		<ellipse style="fill:#FDD900;" cx="406.691" cy="282.891" rx="4.6" ry="2.178"/>
		<path style="fill:#FDD900;" d="M369.22,321.048c0.77-2.258,0.551,2.029,1.256,6.175c0.817-0.093,1.581-0.31,2.083-0.586
			c0.811-0.452-0.651-5.292,1.746-9.292c1.514-2.524,1.055-5.387,0.36-7.312l-2.082-1.067c-0.171-0.085-0.347-0.172-0.559-0.257
			c-0.651-0.272-1.324-0.41-1.994-0.41c-0.579,0-1.156,0.105-1.719,0.314l-2.574,0.956c-2.918,4.963,0.44,11.777,0.662,15.696
			c0.069,1.25,1.176,1.815,2.472,1.963C368.735,324.88,368.749,322.423,369.22,321.048z"/>
		<path style="fill:#3C1212;" d="M370.98,288.366l1.271,0.519c4.4-4.613,21.87-5.629,27.471-5.839
			c-0.003-0.053-0.022-0.101-0.022-0.154c0-2.649,2.94-4.571,6.992-4.571s6.992,1.922,6.992,4.571c0,2.647-2.94,4.569-6.992,4.569
			c-2.572,0-4.688-0.777-5.896-2.021c-4.165,0.323-21.268,1.805-25.575,4.656l31.472,12.838l49.207-20.075l-49.207-20.076
			l-49.206,20.076l12.948,5.282l-0.001,0.006l0.562,0.23L370.98,288.366z"/>
		<path style="fill:#FDD900;" d="M370.03,305.564c1.113,0,2.15,0.245,3.051,0.625c0.262,0.106,0.508,0.222,0.748,0.344l0.419-2.815
			c0.153-1.023-0.734-2.366-1.395-3.06l2.367-10.562l-2.974-1.206l-2.398,11.366c-0.834,0.473-1.846,1.484-1.999,2.508l-0.49,3.285
			C368.277,305.709,369.176,305.564,370.03,305.564z"/>
	</g>
	<path style="fill:#240E0E;" d="M406.691,307.364v10.947c0,0-16.191-10.032-29.723-14.395c0,0,0.089-2.171-1.22-4.009l1.281-4.646
		L406.691,307.364z"/>
</g>
</svg>
