<?xml version="1.0" encoding="iso-8859-1"?>
<!-- Generator: Adobe Illustrator 15.1.0, SVG Export Plug-In . SVG Version: 6.00 Build 0)  -->
<!DOCTYPE svg PUBLIC "-//W3C//DTD SVG 1.1//EN" "http://www.w3.org/Graphics/SVG/1.1/DTD/svg11.dtd">
<svg version="1.1" id="Layer_1" xmlns="http://www.w3.org/2000/svg" xmlns:xlink="http://www.w3.org/1999/xlink" x="0px" y="0px"
	 width="800px" height="600px" viewBox="0 0 800 600" style="enable-background:new 0 0 800 600;" xml:space="preserve">
<path style="fill:#1B1464;" d="M448.592,314c0,0-0.02-2.064-4.249-3.943c-2.048-0.911-5.089-3.258-9.591-4.063
	c1.15-1.231,2.023-3.159,2.919-5.443c0.52-1.322,0.431-2.45,0.431-4.055c0-1.188,0.223-3.091-0.07-4.138
	c-0.994-3.535-3.503-4.51-6.442-4.51c-2.941,0-5.454,0.98-6.445,4.522c-0.292,1.042-0.068,2.942-0.068,4.126
	c0,1.608-0.088,2.741,0.434,4.066c0.739,1.877,1.451,3.501,2.313,4.703c4.986,3.008,5.453,6.337,5.464,7.393v0.018v0.017v4.797
	v0.004l15.306-0.001"/>
<path style="fill:#1B1464;" d="M379.393,312.672v-0.018c0.011-1.047,0.473-4.333,5.357-7.322c0.894-1.213,1.63-2.87,2.38-4.782
	c0.52-1.322,0.431-2.45,0.431-4.055c0-1.188,0.224-3.091-0.071-4.138c-0.994-3.535-3.503-4.51-6.443-4.51
	c-2.942,0-5.454,0.98-6.445,4.522c-0.292,1.042-0.067,2.942-0.067,4.126c0,1.608-0.087,2.741,0.433,4.066
	c0.903,2.294,1.762,4.219,2.909,5.446c-4.465,0.819-7.483,3.148-9.52,4.059c-4.213,1.876-4.233,3.935-4.233,3.935v3.493
	l15.269-0.002v-4.801V312.672z"/>
<path style="fill:#662D91;" d="M423.815,307.271c-2.817-1.252-6.996-4.477-13.184-5.585c1.583-1.693,2.78-4.341,4.013-7.479
	c0.714-1.819,0.592-3.369,0.592-5.576c0-1.631,0.307-4.247-0.098-5.684c-1.365-4.86-4.813-6.201-8.854-6.201
	c-4.044,0-7.496,1.347-8.858,6.215c-0.402,1.434-0.094,4.044-0.094,5.67c0,2.213-0.12,3.767,0.596,5.588
	c1.241,3.155,2.421,5.799,3.998,7.485c-6.137,1.129-10.286,4.33-13.083,5.577c-5.791,2.582-5.819,5.408-5.819,5.408v4.803
	l46.631-0.006v-4.797C429.654,312.69,429.627,309.855,423.815,307.271z"/>
</svg>
