<?xml version="1.0" encoding="iso-8859-1"?>
<!-- Generator: Adobe Illustrator 15.1.0, SVG Export Plug-In . SVG Version: 6.00 Build 0)  -->
<!DOCTYPE svg PUBLIC "-//W3C//DTD SVG 1.1//EN" "http://www.w3.org/Graphics/SVG/1.1/DTD/svg11.dtd">
<svg version="1.1" id="Layer_1" xmlns="http://www.w3.org/2000/svg" xmlns:xlink="http://www.w3.org/1999/xlink" x="0px" y="0px"
	 width="96px" height="96px" viewBox="0 0 96 96" style="enable-background:new 0 0 96 96;" xml:space="preserve">
<path style="fill:#0071BC;" d="M90.092,64.5c0,0-0.02-2.064-4.249-3.943c-2.048-0.91-5.089-3.258-9.591-4.062
	c1.15-1.23,2.023-3.159,2.919-5.443c0.521-1.322,0.431-2.45,0.431-4.055c0-1.188,0.224-3.091-0.069-4.138
	c-0.994-3.535-3.503-4.51-6.442-4.51c-2.94,0-5.454,0.98-6.445,4.522c-0.291,1.042-0.067,2.942-0.067,4.126
	c0,1.608-0.088,2.74,0.434,4.066c0.739,1.877,1.451,3.5,2.313,4.703c4.985,3.008,5.453,6.336,5.464,7.393v0.018v0.018v4.797v0.004
	l15.306-0.001"/>
<path style="fill:#0071BC;" d="M20.893,63.172v-0.018c0.012-1.047,0.474-4.334,5.357-7.322c0.894-1.213,1.63-2.87,2.38-4.782
	c0.521-1.321,0.431-2.45,0.431-4.055c0-1.188,0.225-3.091-0.07-4.138c-0.994-3.535-3.503-4.51-6.443-4.51
	c-2.941,0-5.454,0.98-6.445,4.522c-0.292,1.042-0.066,2.942-0.066,4.126c0,1.608-0.087,2.741,0.433,4.065
	c0.903,2.295,1.763,4.219,2.909,5.446c-4.465,0.819-7.483,3.148-9.52,4.06c-4.214,1.875-4.233,3.935-4.233,3.935v3.493l15.269-0.002
	v-4.801V63.172L20.893,63.172z"/>
<path style="fill:#3FA9F5;" d="M65.315,57.771c-2.817-1.252-6.996-4.478-13.185-5.586c1.583-1.692,2.78-4.34,4.013-7.479
	c0.715-1.819,0.593-3.369,0.593-5.576c0-1.631,0.307-4.247-0.099-5.684c-1.364-4.86-4.812-6.201-8.854-6.201
	c-4.044,0-7.496,1.347-8.858,6.215c-0.401,1.434-0.094,4.044-0.094,5.67c0,2.213-0.12,3.767,0.596,5.588
	c1.241,3.155,2.421,5.798,3.998,7.485c-6.137,1.129-10.286,4.33-13.083,5.577c-5.791,2.582-5.818,5.408-5.818,5.408v4.803
	l46.631-0.006v-4.797C71.154,63.189,71.127,60.355,65.315,57.771z"/>
</svg>
