<?xml version="1.0" encoding="utf-8"?>
<!-- Generator: Adobe Illustrator 15.0.0, SVG Export Plug-In . SVG Version: 6.00 Build 0)  -->
<!DOCTYPE svg PUBLIC "-//W3C//DTD SVG 1.1//EN" "http://www.w3.org/Graphics/SVG/1.1/DTD/svg11.dtd">
<svg version="1.1" id="Layer_1" xmlns="http://www.w3.org/2000/svg" xmlns:xlink="http://www.w3.org/1999/xlink" x="0px" y="0px"
	 width="314px" height="213px" viewBox="0 0 314 213" enable-background="new 0 0 314 213" xml:space="preserve">
<path fill="#FFFFFF" d="M272.803,198.374c0.517,1.18,0.461,2.212-0.104,3.085c-0.589,0.879-1.567,1.34-2.906,1.34H176.42
	l-3.271-64.601h-32.556l-3.398,64.601H43.952c-1.339,0-2.342-0.412-2.961-1.261c-0.641-0.849-0.695-1.905-0.204-3.164
	l74.945-184.948c0.516-1.182,1.415-2.213,2.729-3.086c1.285-0.903,2.625-1.34,3.964-1.34h24.604l-1.002,21.463h21.695L166.591,9
	h24.604c1.335,0,2.675,0.412,3.964,1.261c1.31,0.848,2.213,1.88,2.728,3.165L272.803,198.374z M171.244,102.243l-2.52-52.114
	h-23.834l-2.521,52.114H171.244z"/>
</svg>
