<?xml version="1.0" encoding="utf-8"?>
<!-- Generator: Adobe Illustrator 15.0.0, SVG Export Plug-In . SVG Version: 6.00 Build 0)  -->
<!DOCTYPE svg PUBLIC "-//W3C//DTD SVG 1.1//EN" "http://www.w3.org/Graphics/SVG/1.1/DTD/svg11.dtd">
<svg version="1.1" id="Layer_1" xmlns="http://www.w3.org/2000/svg" xmlns:xlink="http://www.w3.org/1999/xlink" x="0px" y="0px"
	 width="314px" height="213px" viewBox="0 0 314 213" enable-background="new 0 0 314 213" xml:space="preserve">
<g>
	<path fill="#FFFFFF" d="M188.06,16.195l-56.852,86.948l4.433,8.882h-10.248l-0.644,0.995l10.907,17.104l14.274,22.388h-17.056
		l13.292,17.12l16.76,21.584H302.5L188.06,16.195z M188.06,91.556L166.181,101.6l-9.463-12.875l31.342-47.929l25.294,38.684
		l-16.758,46.363L188.06,91.556z"/>
	<polygon fill="#FFFFFF" points="91.858,178.562 134.664,178.562 103.131,137.947 123.38,137.947 97.565,97.469 112.102,97.469 
		71.543,16.195 30.866,97.469 45.47,97.469 19.588,137.947 39.899,137.947 8.303,178.562 51.026,178.562 51.026,198.952 
		91.858,198.952 	"/>
</g>
</svg>
