<?xml version="1.0" encoding="iso-8859-1"?>
<!-- Generator: Adobe Illustrator 15.1.0, SVG Export Plug-In . SVG Version: 6.00 Build 0)  -->
<!DOCTYPE svg PUBLIC "-//W3C//DTD SVG 1.1//EN" "http://www.w3.org/Graphics/SVG/1.1/DTD/svg11.dtd">
<svg version="1.1" id="Layer_1" xmlns="http://www.w3.org/2000/svg" xmlns:xlink="http://www.w3.org/1999/xlink" x="0px" y="0px"
	 width="800px" height="600px" viewBox="0 0 800 600" style="enable-background:new 0 0 800 600;" xml:space="preserve">
<g>
	<path style="fill:#6F5199;" d="M421.006,263.667l-18.847,28.824l1.469,2.943h-3.396l-0.214,0.331l3.616,5.668l4.731,7.423h-5.653
		l4.406,5.676l5.556,7.153h46.268L421.006,263.667z M421.006,288.649l-7.253,3.33l-3.137-4.268l10.39-15.888l8.384,12.823
		l-5.555,15.37L421.006,288.649z"/>
	<polygon style="fill:#0A6132;" points="389.116,317.49 403.305,317.49 392.852,304.027 399.563,304.027 391.006,290.609 
		395.826,290.609 382.381,263.667 368.897,290.609 373.738,290.609 365.158,304.027 371.891,304.027 361.417,317.49 375.58,317.49 
		375.58,324.251 389.116,324.251 	"/>
	<polygon style="fill:#0C351C;" points="382.419,271.185 368.916,290.317 374.588,290.317 364.504,304.648 371.361,304.61 
		361.667,316.903 376.198,316.807 376.199,323.685 380.801,323.926 380.559,316.742 397.755,316.661 372.574,309.48 
		384.773,298.027 372.293,300.146 385.95,281.309 376.297,284.605 	"/>
	<polygon style="fill:#322260;" points="407.378,310.505 414.676,309.329 425.507,310.74 430.451,303.442 435.396,303.912 
		432.57,288.844 454.233,319.218 414.676,319.218 	"/>
</g>
</svg>
