<?xml version="1.0" encoding="iso-8859-1"?>
<!-- Generator: Adobe Illustrator 15.1.0, SVG Export Plug-In . SVG Version: 6.00 Build 0)  -->
<!DOCTYPE svg PUBLIC "-//W3C//DTD SVG 1.1//EN" "http://www.w3.org/Graphics/SVG/1.1/DTD/svg11.dtd">
<svg version="1.1" id="Layer_1" xmlns="http://www.w3.org/2000/svg" xmlns:xlink="http://www.w3.org/1999/xlink" x="0px" y="0px"
	 width="96px" height="96px" viewBox="0 0 96 96" style="enable-background:new 0 0 96 96;" xml:space="preserve">
<polyline style="fill:#6F5199;" points="57.571,19.167 39.969,46.088 41.341,48.837 38.17,48.837 37.969,49.146 41.347,54.439 
	45.766,61.373 40.486,61.373 44.601,66.674 49.79,73.355 93.003,73.355 57.571,19.167 "/>
<polygon style="fill:#6F5199;" points="57.571,42.5 50.798,45.61 47.868,41.624 57.571,26.785 65.401,38.762 60.213,53.117 "/>
<polyline style="fill:#0A6132;" points="21.497,19.167 8.903,44.33 13.424,44.33 5.411,56.861 11.7,56.861 1.917,69.438 
	15.145,69.438 15.145,75.751 27.788,75.751 27.788,69.438 41.039,69.438 31.276,56.861 37.544,56.861 29.552,44.33 34.054,44.33 
	21.497,19.167 "/>
<polygon style="fill:#0C351C;" points="21.532,26.188 8.921,44.058 14.218,44.058 4.8,57.441 11.204,57.406 2.15,68.889 
	15.722,68.798 15.723,75.223 20.021,75.447 19.795,68.738 35.855,68.662 12.337,61.956 23.731,51.258 12.075,53.236 24.831,35.645 
	15.814,38.723 "/>
<polygon style="fill:#322260;" points="44.844,62.912 51.659,61.814 61.775,63.132 66.394,56.314 71.012,56.755 68.372,42.682 
	88.605,71.05 51.659,71.05 "/>
</svg>
