<?xml version="1.0" encoding="iso-8859-1"?>
<!-- Generator: Adobe Illustrator 15.1.0, SVG Export Plug-In . SVG Version: 6.00 Build 0)  -->
<!DOCTYPE svg PUBLIC "-//W3C//DTD SVG 1.1//EN" "http://www.w3.org/Graphics/SVG/1.1/DTD/svg11.dtd">
<svg version="1.1" id="Layer_1" xmlns="http://www.w3.org/2000/svg" xmlns:xlink="http://www.w3.org/1999/xlink" x="0px" y="0px"
	 width="800px" height="600px" viewBox="0 0 800 600" style="enable-background:new 0 0 800 600;" xml:space="preserve">
<path style="fill:#FFEA00;stroke:#FFBD00;stroke-width:4;" d="M433.931,265.566c0,0-9.927,2.584-17.887,2.584
	c-7.961,0-16.27-3.374-16.27-3.374s-7.96,3.374-16.094,3.374c-8.135,0-17.889-2.584-17.889-2.584S364,271.176,364,279.871
	c0,22.227,7.12,36.275,16.745,44.193c5.774,4.751,15.152,11.366,19.029,11.366c3.879,0,13.332-6.635,19.153-11.424
	c9.642-7.935,16.795-21.909,16.795-44.137C435.724,271.312,433.931,265.566,433.931,265.566z"/>
</svg>
