<?xml version="1.0" encoding="iso-8859-1"?>
<!-- Generator: Adobe Illustrator 15.1.0, SVG Export Plug-In . SVG Version: 6.00 Build 0)  -->
<!DOCTYPE svg PUBLIC "-//W3C//DTD SVG 1.1//EN" "http://www.w3.org/Graphics/SVG/1.1/DTD/svg11.dtd">
<svg version="1.1" id="Layer_1" xmlns="http://www.w3.org/2000/svg" xmlns:xlink="http://www.w3.org/1999/xlink" x="0px" y="0px"
	 width="96px" height="96px" viewBox="0 0 96 96" style="enable-background:new 0 0 96 96;" xml:space="preserve">
<path style="fill:#FFEA00;stroke:#FFBD00;stroke-width:4;" d="M76.608,18.878c0,0-8.392,2.184-15.118,2.184
	c-6.729,0-13.752-2.852-13.752-2.852s-6.729,2.852-13.604,2.852c-6.876,0-15.121-2.184-15.121-2.184S17.5,23.62,17.5,30.969
	c0,18.787,6.018,30.662,14.154,37.354c4.88,4.016,12.807,9.606,16.084,9.606s11.269-5.609,16.188-9.656
	c8.15-6.707,14.195-18.519,14.195-37.307C78.124,23.734,76.608,18.878,76.608,18.878z"/>
</svg>
