<?xml version="1.0" encoding="iso-8859-1"?>
<!-- Generator: Adobe Illustrator 15.1.0, SVG Export Plug-In . SVG Version: 6.00 Build 0)  -->
<!DOCTYPE svg PUBLIC "-//W3C//DTD SVG 1.1//EN" "http://www.w3.org/Graphics/SVG/1.1/DTD/svg11.dtd">
<svg version="1.1" id="Layer_1" xmlns="http://www.w3.org/2000/svg" xmlns:xlink="http://www.w3.org/1999/xlink" x="0px" y="0px"
	 width="96px" height="96px" viewBox="0 0 96 96" style="enable-background:new 0 0 96 96;" xml:space="preserve">
<g>
	<polygon style="fill:#006837;" points="15.51,26.902 69.102,26.902 69.102,22.903 11.51,22.903 11.51,58.898 15.51,58.898 	"/>
	<polygon style="fill:#009245;" points="22.708,34.069 76.302,34.069 76.302,30.102 18.709,30.102 18.709,66.098 22.708,66.098 	"/>
	<path style="fill:#39B54A;" d="M25.908,37.268v35.996H83.5V37.268H25.908z M80.301,70.062H29.108V40.466h51.192V70.062z"/>
	<path style="fill:#39B54A;" d="M37.375,57.843c0.255,0,1.026-0.938,1.026-2.649s-0.771-2.648-1.026-2.648
		c-0.256,0-1.028,0.938-1.028,2.648C36.347,56.902,37.119,57.843,37.375,57.843z"/>
	<path style="fill:#39B54A;" d="M72.069,57.843c0.255,0,1.025-0.938,1.025-2.649s-0.771-2.648-1.025-2.648
		c-0.257,0-1.028,0.938-1.028,2.648C71.041,56.902,71.812,57.843,72.069,57.843z"/>
	<path style="fill:#39B54A;" d="M44.156,55.191c0-5.303,2.192-9.917,5.433-12.324H31.507v24.797h18.285
		C46.442,65.302,44.156,60.605,44.156,55.191z M34.747,55.191c0-2.346,1.175-4.248,2.628-4.248c1.45,0,2.626,1.902,2.626,4.248
		c0,2.348-1.176,4.25-2.626,4.25C35.922,59.441,34.747,57.539,34.747,55.191z"/>
	<path style="fill:#39B54A;" d="M59.82,42.867c3.236,2.407,5.433,7.021,5.433,12.324c0,5.414-2.286,10.108-5.637,12.473H77.9V42.867
		H59.82z M72.069,50.943c1.449,0,2.627,1.902,2.627,4.248c0,2.348-1.178,4.25-2.627,4.25c-1.451,0-2.628-1.902-2.628-4.25
		C69.441,52.846,70.618,50.943,72.069,50.943z"/>
	<path style="fill:#39B54A;" d="M53.928,64.117v1.145c0,0.436,0.077,0.512,0.535,0.512h0.509c0.458,0,0.533-0.076,0.533-0.512
		v-1.145c1.685-0.279,4.454-1.451,4.454-4.988c0-3.258-2.799-4.354-4.454-5.167v-4.708c1.095,0,2.751,1.018,2.901,1.018
		c0.104,0,0.179-0.076,0.229-0.201l0.788-1.731c0.053-0.102,0.078-0.178,0.078-0.28c0-0.864-3.258-1.425-3.997-1.476v-1.247
		c0-0.433-0.075-0.508-0.533-0.508h-0.509c-0.458,0-0.535,0.075-0.535,0.508v1.247c-1.171,0.051-4.479,1.12-4.479,4.86
		c0,3.358,2.927,4.25,4.479,4.938v4.987c-1.552-0.18-3.258-1.171-3.41-1.171c-0.102,0-0.204,0.151-0.229,0.202l-0.736,2.14
		C49.5,62.691,49.5,62.691,49.5,62.77C49.5,63.531,53.062,64.117,53.928,64.117z M52.376,51.238c0-1.5,1.222-1.856,1.729-1.984
		v4.148C53.545,53.146,52.376,52.613,52.376,51.238z M55.328,56.965c0.585,0.309,1.704,0.84,1.704,2.316
		c0,1.398-0.967,1.883-1.704,2.087V56.965z"/>
</g>
</svg>
