<?xml version="1.0" encoding="iso-8859-1"?>
<!-- Generator: Adobe Illustrator 15.1.0, SVG Export Plug-In . SVG Version: 6.00 Build 0)  -->
<!DOCTYPE svg PUBLIC "-//W3C//DTD SVG 1.1//EN" "http://www.w3.org/Graphics/SVG/1.1/DTD/svg11.dtd">
<svg version="1.1" id="Layer_1" xmlns="http://www.w3.org/2000/svg" xmlns:xlink="http://www.w3.org/1999/xlink" x="0px" y="0px"
	 width="800px" height="600px" viewBox="0 0 800 600" style="enable-background:new 0 0 800 600;" xml:space="preserve">
<g>
	<polygon style="fill:#006837;" points="368.01,278.402 421.602,278.402 421.602,274.403 364.01,274.403 364.01,310.398 
		368.01,310.398 	"/>
	<polygon style="fill:#009245;" points="375.208,285.569 428.802,285.569 428.802,281.602 371.209,281.602 371.209,317.597 
		375.208,317.597 	"/>
	<path style="fill:#39B54A;" d="M378.408,288.768v35.996H436v-35.996H378.408z M432.801,321.563h-51.193v-29.596h51.193V321.563z"/>
	<path style="fill:#39B54A;" d="M389.875,309.343c0.255,0,1.026-0.94,1.026-2.65s-0.771-2.649-1.026-2.649
		c-0.256,0-1.028,0.939-1.028,2.649S389.619,309.343,389.875,309.343z"/>
	<path style="fill:#39B54A;" d="M424.569,309.343c0.255,0,1.027-0.94,1.027-2.65s-0.772-2.649-1.027-2.649
		c-0.257,0-1.028,0.939-1.028,2.649S424.312,309.343,424.569,309.343z"/>
	<path style="fill:#39B54A;" d="M396.656,306.692c0-5.304,2.194-9.918,5.433-12.325h-18.082v24.797h18.285
		C398.942,316.802,396.656,312.106,396.656,306.692z M387.247,306.692c0-2.347,1.175-4.249,2.628-4.249
		c1.45,0,2.626,1.902,2.626,4.249s-1.176,4.25-2.626,4.25C388.422,310.942,387.247,309.039,387.247,306.692z"/>
	<path style="fill:#39B54A;" d="M412.32,294.367c3.238,2.407,5.433,7.021,5.433,12.325c0,5.414-2.286,10.109-5.637,12.472H430.4
		v-24.797H412.32z M424.569,302.443c1.451,0,2.627,1.902,2.627,4.249s-1.176,4.25-2.627,4.25s-2.628-1.903-2.628-4.25
		S423.118,302.443,424.569,302.443z"/>
	<path style="fill:#39B54A;" d="M406.428,315.617v1.145c0,0.434,0.077,0.51,0.535,0.51h0.509c0.458,0,0.533-0.076,0.533-0.51v-1.145
		c1.683-0.279,4.454-1.451,4.454-4.988c0-3.258-2.799-4.353-4.454-5.167v-4.708c1.095,0,2.751,1.018,2.901,1.018
		c0.104,0,0.179-0.076,0.229-0.202l0.788-1.732c0.053-0.102,0.078-0.178,0.078-0.28c0-0.864-3.258-1.425-3.997-1.476v-1.247
		c0-0.433-0.075-0.508-0.533-0.508h-0.509c-0.458,0-0.535,0.075-0.535,0.508v1.247c-1.171,0.051-4.479,1.12-4.479,4.862
		c0,3.358,2.927,4.249,4.479,4.938v4.987c-1.552-0.179-3.258-1.171-3.41-1.171c-0.102,0-0.204,0.152-0.23,0.203l-0.736,2.139
		C402,314.191,402,314.191,402,314.269C402,315.031,405.562,315.617,406.428,315.617z M404.876,302.738
		c0-1.5,1.222-1.856,1.729-1.984v4.148C406.045,304.647,404.876,304.113,404.876,302.738z M407.828,308.465
		c0.585,0.307,1.704,0.84,1.704,2.316c0,1.399-0.967,1.883-1.704,2.087V308.465z"/>
</g>
</svg>
