<?xml version="1.0" encoding="iso-8859-1"?>
<!-- Generator: Adobe Illustrator 15.1.0, SVG Export Plug-In . SVG Version: 6.00 Build 0)  -->
<!DOCTYPE svg PUBLIC "-//W3C//DTD SVG 1.1//EN" "http://www.w3.org/Graphics/SVG/1.1/DTD/svg11.dtd">
<svg version="1.1" id="Layer_1" xmlns="http://www.w3.org/2000/svg" xmlns:xlink="http://www.w3.org/1999/xlink" x="0px" y="0px"
	 width="800px" height="600px" viewBox="0 0 800 600" style="enable-background:new 0 0 800 600;" xml:space="preserve">
<path style="fill:#343433;" d="M438.868,313.68c0.153,0.352,0.138,0.658-0.029,0.918c-0.176,0.261-0.468,0.398-0.865,0.398h-27.749
	l-0.971-19.198h-9.676l-1.01,19.198h-27.711c-0.398,0-0.696-0.123-0.88-0.376c-0.19-0.252-0.206-0.565-0.061-0.94l22.272-54.962
	c0.153-0.352,0.421-0.657,0.811-0.918c0.382-0.267,0.78-0.397,1.179-0.397h7.312l-0.299,6.378h6.448l-0.337-6.378h7.312
	c0.396,0,0.795,0.122,1.178,0.375c0.39,0.251,0.657,0.558,0.811,0.94L438.868,313.68z M408.688,285.113l-0.75-15.488h-7.083
	l-0.75,15.488H408.688z"/>
<polyline style="fill:#FFDD15;" points="400.855,269.625 400.105,285.113 408.688,285.113 407.938,269.625 "/>
<polyline style="fill:#FFDD15;" points="401.49,257.402 407.303,257.402 407.64,263.78 401.191,263.78 "/>
<polyline style="fill:#FFDD15;" points="398.568,314.996 410.225,314.996 409.254,295.798 399.578,295.798 "/>
</svg>
