<?xml version="1.0" encoding="utf-8"?>
<!-- Generator: Adobe Illustrator 15.0.0, SVG Export Plug-In . SVG Version: 6.00 Build 0)  -->
<!DOCTYPE svg PUBLIC "-//W3C//DTD SVG 1.1//EN" "http://www.w3.org/Graphics/SVG/1.1/DTD/svg11.dtd">
<svg version="1.1" id="Layer_1" xmlns="http://www.w3.org/2000/svg" xmlns:xlink="http://www.w3.org/1999/xlink" x="0px" y="0px"
	 width="314px" height="213px" viewBox="0 0 314 213" enable-background="new 0 0 314 213" xml:space="preserve">
<g>
	<path fill="#FFFFFF" d="M246.19,73.048c-1.408-3.856-5.062-6.306-9.01-6.306c-0.764,0-1.537,0.091-2.309,0.281l-1.58,0.392
		c-8.352-16.707-21.956-30.319-38.654-38.687l0.392-1.581c1.177-4.755-1.417-9.632-6.017-11.315
		C178.444,11.961,167.336,10,155.993,10c-11.315,0-22.401,1.954-32.943,5.808c-4.604,1.682-7.198,6.56-6.023,11.317l0.388,1.569
		c-16.724,8.366-30.349,21.989-38.713,38.71l-1.542-0.381c-0.771-0.19-1.542-0.281-2.305-0.281c-3.945,0-7.599,2.444-9.01,6.299
		c-3.87,10.567-5.831,21.675-5.831,33.021c0,11.315,1.951,22.398,5.804,32.942c1.409,3.86,5.065,6.305,9.013,6.305
		c0.761,0,1.537-0.091,2.305-0.28l1.591-0.395c8.367,16.698,21.979,30.3,38.685,38.657l-0.385,1.56
		c-1.175,4.753,1.418,9.63,6.016,11.312c10.564,3.872,21.678,5.836,33.021,5.836c11.315,0,22.398-1.953,32.944-5.807
		c4.6-1.684,7.199-6.562,6.022-11.318l-0.397-1.615c16.678-8.355,30.27-21.944,38.628-38.625l1.592,0.395
		c0.771,0.189,1.542,0.28,2.306,0.28c3.944,0,7.596-2.444,9.007-6.297c3.869-10.565,5.833-21.674,5.833-33.021
		C251.997,94.676,250.045,83.592,246.19,73.048z M237.154,135.709l-37.767-9.324c2.928-6.197,4.615-13.096,4.615-20.393
		c0-7.272-1.675-14.144-4.578-20.327l37.75-9.323c3.381,9.248,5.224,19.233,5.224,29.65
		C242.398,116.433,240.547,126.442,237.154,135.709z M185.711,187.178c-9.244,3.379-19.234,5.221-29.648,5.221
		c-10.44,0-20.451-1.852-29.717-5.247l9.324-37.761c6.198,2.928,13.093,4.612,20.393,4.612c7.273,0,14.144-1.675,20.325-4.581
		L185.711,187.178z M180.519,140.758c-1.308-0.623-2.719-0.936-4.131-0.936c-1.394,0-2.789,0.306-4.082,0.912
		c-5.178,2.435-10.642,3.667-16.243,3.667c-5.622,0-11.104-1.24-16.293-3.692c-1.298-0.61-2.699-0.918-4.099-0.918
		c-1.413,0-2.818,0.308-4.125,0.928c-1.729,0.828-3.115,2.169-4.078,3.786c-3.787-2.812-7.135-6.161-9.951-9.942
		c1.593-0.959,2.921-2.331,3.737-4.047c1.237-2.597,1.244-5.611,0.021-8.213c-2.432-5.175-3.667-10.642-3.667-16.24
		c0-5.625,1.243-11.107,3.693-16.296c1.23-2.604,1.224-5.62-0.01-8.22c-0.828-1.74-2.177-3.126-3.796-4.09
		c2.823-3.796,6.182-7.156,9.981-9.977c0.961,1.604,2.336,2.94,4.065,3.763c1.306,0.623,2.717,0.932,4.131,0.932
		c1.39,0,2.788-0.303,4.08-0.911c5.18-2.434,10.644-3.668,16.243-3.668c5.625,0,11.106,1.244,16.296,3.694
		c1.297,0.612,2.698,0.919,4.099,0.919c1.407,0,2.818-0.312,4.119-0.929c1.728-0.822,3.103-2.154,4.062-3.756
		c3.787,2.818,7.131,6.167,9.943,9.956c-1.604,0.961-2.938,2.337-3.757,4.059c-1.237,2.595-1.246,5.611-0.021,8.212
		c2.436,5.176,3.67,10.641,3.67,16.242c0,5.623-1.246,11.104-3.696,16.294c-1.227,2.604-1.227,5.623,0.013,8.224
		c0.818,1.719,2.151,3.094,3.746,4.056c-2.809,3.771-6.142,7.106-9.911,9.911C183.592,142.894,182.227,141.572,180.519,140.758z
		 M69.61,106.062c0-10.442,1.851-20.454,5.247-29.72l37.763,9.326c-2.928,6.199-4.612,13.095-4.612,20.395
		c0,7.271,1.672,14.141,4.578,20.322l-37.752,9.324C71.456,126.464,69.61,116.477,69.61,106.062z M155.993,19.599
		c10.442,0,20.452,1.854,29.718,5.248l-9.323,37.762c-6.2-2.928-13.096-4.612-20.395-4.612c-7.272,0-14.141,1.674-20.323,4.579
		l-9.324-37.751C135.592,21.444,145.579,19.599,155.993,19.599z"/>
</g>
</svg>
