<?xml version="1.0" encoding="utf-8"?>
<!-- Generator: Adobe Illustrator 15.0.0, SVG Export Plug-In . SVG Version: 6.00 Build 0)  -->
<!DOCTYPE svg PUBLIC "-//W3C//DTD SVG 1.1//EN" "http://www.w3.org/Graphics/SVG/1.1/DTD/svg11.dtd">
<svg version="1.1" id="Layer_1" xmlns="http://www.w3.org/2000/svg" xmlns:xlink="http://www.w3.org/1999/xlink" x="0px" y="0px"
	 width="401px" height="384px" viewBox="0 0 401 384" enable-background="new 0 0 401 384" xml:space="preserve">
<g>
	<g>
		<path d="M369.608,131.719c-2.642-7.226-9.491-11.821-16.894-11.821c-1.431,0-2.881,0.171-4.326,0.527l-2.963,0.737
			c-15.659-31.327-41.166-56.848-72.473-72.536l0.731-2.963c2.207-8.916-2.655-18.061-11.278-21.215
			c-19.813-7.26-40.643-10.937-61.912-10.937c-21.215,0-42,3.662-61.765,10.888c-8.632,3.154-13.496,12.299-11.293,21.22
			l0.728,2.939c-31.356,15.688-56.902,41.229-72.585,72.58l-2.891-0.713c-1.445-0.356-2.89-0.527-4.321-0.527
			c-7.397,0-14.248,4.585-16.894,11.811c-7.255,19.813-10.932,40.638-10.932,61.912c0,21.215,3.657,41.996,10.883,61.766
			c2.642,7.235,9.497,11.82,16.899,11.82c1.426,0,2.88-0.171,4.321-0.527l2.983-0.737c15.688,31.308,41.209,56.81,72.531,72.478
			l-0.723,2.924c-2.202,8.912,2.661,18.057,11.279,21.211c19.809,7.26,40.643,10.941,61.912,10.941
			c21.215,0,41.996-3.662,61.77-10.889c8.623-3.152,13.495-12.303,11.288-21.219l-0.741-3.027
			c31.268-15.668,56.75-41.146,72.424-72.419l2.982,0.737c1.445,0.356,2.891,0.527,4.321,0.527c7.397,0,14.243-4.585,16.889-11.807
			c7.256-19.809,10.938-40.638,10.938-61.911C380.497,172.274,376.835,151.489,369.608,131.719z M352.666,249.205l-70.808-17.48
			c5.488-11.62,8.652-24.555,8.652-38.235c0-13.637-3.14-26.518-8.584-38.109l70.778-17.479c6.338,17.333,9.795,36.058,9.795,55.588
			C362.5,213.064,359.028,231.832,352.666,249.205z M256.215,345.705c-17.333,6.338-36.062,9.789-55.588,9.789
			c-19.575,0-38.343-3.471-55.715-9.838l17.479-70.799c11.621,5.488,24.55,8.648,38.236,8.648c13.637,0,26.518-3.141,38.109-8.59
			L256.215,345.705z M246.479,258.672c-2.451-1.166-5.098-1.752-7.744-1.752c-2.612,0-5.229,0.57-7.656,1.709
			c-9.706,4.564-19.95,6.874-30.453,6.874c-10.542,0-20.819-2.324-30.55-6.923c-2.432-1.143-5.059-1.719-7.686-1.719
			c-2.646,0-5.283,0.576-7.734,1.738c-3.242,1.553-5.84,4.066-7.646,7.099c-7.099-5.272-13.378-11.552-18.656-18.642
			c2.988-1.797,5.478-4.37,7.006-7.588c2.319-4.867,2.334-10.521,0.039-15.4c-4.56-9.701-6.875-19.949-6.875-30.447
			c0-10.546,2.329-20.824,6.923-30.555c2.305-4.883,2.295-10.537-0.02-15.41c-1.553-3.262-4.082-5.864-7.119-7.67
			c5.292-7.119,11.591-13.417,18.715-18.706c1.802,3.008,4.38,5.512,7.622,7.055c2.446,1.167,5.092,1.748,7.744,1.748
			c2.607,0,5.229-0.571,7.651-1.709c9.711-4.565,19.955-6.879,30.453-6.879c10.546,0,20.824,2.334,30.555,6.928
			c2.432,1.147,5.059,1.724,7.686,1.724c2.637,0,5.283-0.586,7.725-1.743c3.236-1.538,5.814-4.038,7.616-7.041
			c7.1,5.283,13.369,11.562,18.643,18.667c-3.008,1.801-5.508,4.384-7.046,7.607c-2.319,4.868-2.334,10.522-0.039,15.4
			c4.565,9.707,6.88,19.95,6.88,30.453c0,10.542-2.334,20.819-6.929,30.55c-2.3,4.883-2.3,10.543,0.024,15.42
			c1.533,3.223,4.033,5.801,7.021,7.602c-5.264,7.07-11.514,13.326-18.584,18.584C252.24,262.676,249.682,260.201,246.479,258.672z
			 M38.533,193.621c0-19.579,3.472-38.348,9.839-55.72l70.803,17.479c-5.488,11.625-8.647,24.555-8.647,38.241
			c0,13.633,3.135,26.513,8.584,38.104l-70.783,17.48C41.995,231.871,38.533,213.146,38.533,193.621z M200.495,31.508
			c19.58,0,38.348,3.477,55.72,9.839l-17.479,70.803c-11.626-5.488-24.555-8.652-38.241-8.652c-13.632,0-26.513,3.145-38.104,8.589
			l-17.479-70.783C162.244,34.965,180.969,31.508,200.495,31.508z"/>
	</g>
	<path fill="#F16A22" d="M257.59,278.935l10.954,46.396c0,0,42.529-14.821,63.15-62.506l-49.618-12.243
		C282.076,250.582,278.21,265.402,257.59,278.935z"/>
	<path fill="#F16A22" d="M139.391,109.681l-10.955-46.396c0,0-42.529,14.822-63.15,62.506l49.618,12.243
		C114.904,138.034,118.771,123.213,139.391,109.681z"/>
	<path fill="#F16A22" d="M286.656,135.102l46.396-10.955c0,0-14.822-42.529-62.507-63.15l-12.243,49.618
		C258.303,110.615,273.124,114.481,286.656,135.102z"/>
	<path fill="#F16A22" d="M114.399,250.298l-46.396,10.954c0,0,14.822,42.529,62.506,63.149l12.243-49.617
		C142.752,274.784,127.931,270.918,114.399,250.298z"/>
</g>
</svg>
